<?xml version="1.0" encoding="utf-8"?>
<!-- Generator: Adobe Illustrator 16.0.4, SVG Export Plug-In . SVG Version: 6.00 Build 0)  -->
<!DOCTYPE svg PUBLIC "-//W3C//DTD SVG 1.1//EN" "http://www.w3.org/Graphics/SVG/1.1/DTD/svg11.dtd">
<svg version="1.1" id="Ebene_1" xmlns="http://www.w3.org/2000/svg" xmlns:xlink="http://www.w3.org/1999/xlink" x="0px" y="0px"
	 width="360px" height="360px" viewBox="0 0 360 360" enable-background="new 0 0 360 360" xml:space="preserve">
<g>
	<g>
		<g>
			<line fill="none" stroke="#003B6A" stroke-miterlimit="10" x1="180.123" y1="0" x2="180.123" y2="20.113"/>
			<line fill="none" stroke="#003B6A" stroke-miterlimit="10" x1="161.308" y1="0.974" x2="163.411" y2="20.976"/>
			<line fill="none" stroke="#003B6A" stroke-miterlimit="10" x1="142.699" y1="3.908" x2="146.878" y2="23.581"/>
			<line fill="none" stroke="#003B6A" stroke-miterlimit="10" x1="124.496" y1="8.771" x2="130.709" y2="27.9"/>
			<line fill="none" stroke="#003B6A" stroke-miterlimit="10" x1="106.901" y1="15.511" x2="115.081" y2="33.885"/>
			<line fill="none" stroke="#003B6A" stroke-miterlimit="10" x1="90.106" y1="24.052" x2="100.163" y2="41.471"/>
			<line fill="none" stroke="#003B6A" stroke-miterlimit="10" x1="74.3" y1="34.303" x2="86.119" y2="50.575"/>
			<line fill="none" stroke="#003B6A" stroke-miterlimit="10" x1="59.65" y1="46.15" x2="73.107" y2="61.097"/>
			<line fill="none" stroke="#003B6A" stroke-miterlimit="10" x1="46.317" y1="59.463" x2="61.263" y2="72.922"/>
			<line fill="none" stroke="#003B6A" stroke-miterlimit="10" x1="34.45" y1="74.096" x2="50.721" y2="85.92"/>
			<line fill="none" stroke="#003B6A" stroke-miterlimit="10" x1="24.178" y1="89.891" x2="41.595" y2="99.949"/>
			<line fill="none" stroke="#003B6A" stroke-miterlimit="10" x1="15.612" y1="106.672" x2="33.985" y2="114.854"/>
			<line fill="none" stroke="#003B6A" stroke-miterlimit="10" x1="8.851" y1="124.256" x2="27.976" y2="130.474"/>
			<line fill="none" stroke="#003B6A" stroke-miterlimit="10" x1="3.958" y1="142.453" x2="23.632" y2="146.636"/>
			<line fill="none" stroke="#003B6A" stroke-miterlimit="10" x1="0.999" y1="161.06" x2="21" y2="163.164"/>
			<line fill="none" stroke="#003B6A" stroke-miterlimit="10" x1="0" y1="179.874" x2="20.112" y2="179.875"/>
			<line fill="none" stroke="#003B6A" stroke-miterlimit="10" x1="0.973" y1="198.689" x2="20.975" y2="196.589"/>
			<line fill="none" stroke="#003B6A" stroke-miterlimit="10" x1="3.906" y1="217.302" x2="23.58" y2="213.119"/>
			<line fill="none" stroke="#003B6A" stroke-miterlimit="10" x1="8.77" y1="235.504" x2="27.898" y2="229.288"/>
			<line fill="none" stroke="#003B6A" stroke-miterlimit="10" x1="15.51" y1="253.097" x2="33.884" y2="244.918"/>
			<line fill="none" stroke="#003B6A" stroke-miterlimit="10" x1="24.051" y1="269.891" x2="41.469" y2="259.836"/>
			<line fill="none" stroke="#003B6A" stroke-miterlimit="10" x1="34.302" y1="285.7" x2="50.575" y2="273.88"/>
			<line fill="none" stroke="#003B6A" stroke-miterlimit="10" x1="46.147" y1="300.349" x2="61.097" y2="286.894"/>
			<line fill="none" stroke="#003B6A" stroke-miterlimit="10" x1="59.462" y1="313.683" x2="72.921" y2="298.737"/>
			<line fill="none" stroke="#003B6A" stroke-miterlimit="10" x1="74.095" y1="325.549" x2="85.919" y2="309.28"/>
			<line fill="none" stroke="#003B6A" stroke-miterlimit="10" x1="89.891" y1="335.821" x2="99.949" y2="318.403"/>
			<line fill="none" stroke="#003B6A" stroke-miterlimit="10" x1="106.669" y1="344.384" x2="114.854" y2="326.013"/>
			<line fill="none" stroke="#003B6A" stroke-miterlimit="10" x1="124.255" y1="351.149" x2="130.473" y2="332.022"/>
			<line fill="none" stroke="#003B6A" stroke-miterlimit="10" x1="142.451" y1="356.037" x2="146.635" y2="336.366"/>
			<line fill="none" stroke="#003B6A" stroke-miterlimit="10" x1="161.057" y1="358.998" x2="163.163" y2="338.996"/>
			<line fill="none" stroke="#003B6A" stroke-miterlimit="10" x1="179.871" y1="359.998" x2="179.875" y2="339.889"/>
			<line fill="none" stroke="#003B6A" stroke-miterlimit="10" x1="198.686" y1="359.025" x2="196.588" y2="339.023"/>
			<line fill="none" stroke="#003B6A" stroke-miterlimit="10" x1="217.296" y1="356.091" x2="213.119" y2="336.419"/>
			<line fill="none" stroke="#003B6A" stroke-miterlimit="10" x1="235.499" y1="351.229" x2="229.287" y2="332.099"/>
			<line fill="none" stroke="#003B6A" stroke-miterlimit="10" x1="253.091" y1="344.487" x2="244.915" y2="326.114"/>
			<line fill="none" stroke="#003B6A" stroke-miterlimit="10" x1="269.887" y1="335.945" x2="259.834" y2="318.529"/>
			<line fill="none" stroke="#003B6A" stroke-miterlimit="10" x1="285.693" y1="325.696" x2="273.88" y2="309.425"/>
			<line fill="none" stroke="#003B6A" stroke-miterlimit="10" x1="300.344" y1="313.852" x2="286.894" y2="298.9"/>
			<line fill="none" stroke="#003B6A" stroke-miterlimit="10" x1="313.676" y1="300.537" x2="298.736" y2="287.076"/>
			<line fill="none" stroke="#003B6A" stroke-miterlimit="10" x1="325.542" y1="285.903" x2="309.279" y2="274.078"/>
			<line fill="none" stroke="#003B6A" stroke-miterlimit="10" x1="335.814" y1="270.109" x2="318.403" y2="260.048"/>
			<line fill="none" stroke="#003B6A" stroke-miterlimit="10" x1="344.379" y1="253.327" x2="326.013" y2="245.143"/>
			<line fill="none" stroke="#003B6A" stroke-miterlimit="10" x1="351.144" y1="235.744" x2="332.022" y2="229.523"/>
			<line fill="none" stroke="#003B6A" stroke-miterlimit="10" x1="356.034" y1="217.548" x2="336.365" y2="213.361"/>
			<line fill="none" stroke="#003B6A" stroke-miterlimit="10" x1="358.995" y1="198.94" x2="338.995" y2="196.833"/>
			<line fill="none" stroke="#003B6A" stroke-miterlimit="10" x1="359.995" y1="180.127" x2="339.882" y2="180.12"/>
			<line fill="none" stroke="#003B6A" stroke-miterlimit="10" x1="359.02" y1="161.312" x2="339.019" y2="163.408"/>
			<line fill="none" stroke="#003B6A" stroke-miterlimit="10" x1="356.088" y1="142.701" x2="336.415" y2="146.876"/>
			<line fill="none" stroke="#003B6A" stroke-miterlimit="10" x1="351.225" y1="124.499" x2="332.097" y2="130.707"/>
			<line fill="none" stroke="#003B6A" stroke-miterlimit="10" x1="344.482" y1="106.905" x2="326.111" y2="115.079"/>
			<line fill="none" stroke="#003B6A" stroke-miterlimit="10" x1="335.94" y1="90.111" x2="318.523" y2="100.162"/>
			<line fill="none" stroke="#003B6A" stroke-miterlimit="10" x1="325.692" y1="74.303" x2="309.419" y2="86.119"/>
			<line fill="none" stroke="#003B6A" stroke-miterlimit="10" x1="313.845" y1="59.653" x2="298.896" y2="73.105"/>
			<line fill="none" stroke="#003B6A" stroke-miterlimit="10" x1="300.532" y1="46.322" x2="287.071" y2="61.262"/>
			<line fill="none" stroke="#003B6A" stroke-miterlimit="10" x1="285.9" y1="34.454" x2="274.074" y2="50.72"/>
			<line fill="none" stroke="#003B6A" stroke-miterlimit="10" x1="270.105" y1="24.182" x2="260.045" y2="41.595"/>
			<line fill="none" stroke="#003B6A" stroke-miterlimit="10" x1="253.324" y1="15.617" x2="245.142" y2="33.985"/>
			<line fill="none" stroke="#003B6A" stroke-miterlimit="10" x1="235.739" y1="8.853" x2="229.52" y2="27.976"/>
			<line fill="none" stroke="#003B6A" stroke-miterlimit="10" x1="217.545" y1="3.963" x2="213.357" y2="23.633"/>
			<line fill="none" stroke="#003B6A" stroke-miterlimit="10" x1="198.938" y1="1.003" x2="196.831" y2="21.003"/>
		</g>
		<line fill="none" stroke="#003B6A" stroke-width="7" stroke-miterlimit="10" x1="180.123" y1="0" x2="180.123" y2="20.113"/>
		<line fill="none" stroke="#003B6A" stroke-width="7" stroke-miterlimit="10" x1="90.106" y1="24.055" x2="100.165" y2="41.474"/>
		<line fill="none" stroke="#003B6A" stroke-width="7" stroke-miterlimit="10" x1="24.178" y1="89.895" x2="41.596" y2="99.951"/>
		<line fill="none" stroke="#003B6A" stroke-width="7" stroke-miterlimit="10" x1="0.001" y1="179.878" x2="20.115" y2="179.878"/>
		<line fill="none" stroke="#003B6A" stroke-width="7" stroke-miterlimit="10" x1="24.056" y1="269.895" x2="41.474" y2="259.838"/>
		<line fill="none" stroke="#003B6A" stroke-width="7" stroke-miterlimit="10" x1="89.895" y1="335.825" x2="99.952" y2="318.405"/>
		<line fill="none" stroke="#003B6A" stroke-width="7" stroke-miterlimit="10" x1="179.878" y1="360" x2="179.88" y2="339.889"/>
		
			<line fill="none" stroke="#003B6A" stroke-width="7" stroke-miterlimit="10" x1="269.893" y1="335.947" x2="259.839" y2="318.527"/>
		
			<line fill="none" stroke="#003B6A" stroke-width="7" stroke-miterlimit="10" x1="335.823" y1="270.107" x2="318.404" y2="260.05"/>
		<line fill="none" stroke="#003B6A" stroke-width="7" stroke-miterlimit="10" x1="360" y1="180.124" x2="339.888" y2="180.123"/>
		
			<line fill="none" stroke="#003B6A" stroke-width="7" stroke-miterlimit="10" x1="335.947" y1="90.107" x2="318.526" y2="100.163"/>
		<line fill="none" stroke="#003B6A" stroke-width="7" stroke-miterlimit="10" x1="270.109" y1="24.177" x2="260.051" y2="41.596"/>
	</g>
</g>
</svg>
